<svg
	xmlns="http://www.w3.org/2000/svg"
	viewBox="0 0 100 100"
	aria-label="a green sauropod wearing a brown belt"
>
	<path
		style="fill:#298e29"
		d="M 18.067186,15.969407 C 21.788999,13.893836 17.949371,0.38957847 10.927436,0.04361599 4.8719565,-0.25473037 1.7349173,7.4851976 0.94704854,15.249287 0.02696047,24.316337 -0.6677301,32.919219 1.7235225,43.540819 c 2.5595702,11.369243 7.8265734,24.76904 13.4044815,34.617135 6.000725,10.5946 6.333077,21.082063 4.259561,21.743913 -0.37852,0.120823 10.678845,0.113323 10.719036,0.0052 0.485779,-1.307216 -3.047914,-6.720196 -1.423246,-8.599821 1.949043,-2.254904 17.430713,0.186565 21.929,0.285178 9.05576,0.198523 17.000796,-1.770745 18.230176,-0.990103 1.997906,1.268647 -0.0039,9.238065 -2.323031,9.31776 -0.796937,0.02739 9.197985,0.07826 9.701522,0.01571 1.109966,-0.137884 1.121155,-9.527423 1.329075,-10.410507 C 77.607043,89.2834 96.053852,85.109995 99.112049,70.368973 103.63141,48.584901 86.877032,39.05263 85.950278,39.29966 83.317032,40.001563 101.56057,48.396651 91.102193,67.902384 88.018737,73.653284 77.350057,79.523245 75.685258,79.119008 73.64059,78.622534 65.09671,63.091297 52.400901,65.836332 42.428666,67.992487 43.591522,76.148161 25.433123,79.252575 22.457207,79.761347 8.3898205,42.951962 7.7195376,25.924892 7.3556266,16.68053 8.3579856,12.824716 8.3579856,12.824716 c 0,0 6.4076794,4.985875 9.7092004,3.144691 z"
	/>
	<path
		style="fill:#6f492b"
		d="m 51.811124,91.579144 c -0.338516,0.300927 1.649325,0.223227 1.91566,0.125562 10.084215,-3.697658 13.756737,-6.313605 15.083689,-19.379753 0.213532,-2.102603 -6.814409,-6.279564 -6.854038,-5.131405 -0.399472,11.573929 -1.610604,16.392773 -10.086139,24.32687"
	/>
	<path
		style="fill:#34251a"
		d="m 57.712693,87.945562 c 0,0 1.995464,1.865412 2.68268,1.964956 0.765874,0.110938 4.011805,-1.572536 4.056136,-2.519526 0.05138,-1.097583 -3.559853,-3.060285 -3.559853,-3.060285"
	/>
	<path
		style="fill:#34251a"
		d="m 61.598583,82.940048 c 0,0 3.423751,3.095396 4.286346,2.851789 0.676123,-0.190945 2.567214,-3.369081 2.28239,-4.177499 -0.333199,-0.945723 -5.337842,-1.790867 -5.337842,-1.790867"
	/>
	<path
		style="fill:#34251a"
		d="m 63.187415,78.383306 c 0,0 4.923745,1.759016 5.668289,1.154079 0.551751,-0.448294 1.380932,-3.505132 1.032166,-4.129317 -0.767431,-1.37347 -5.791186,-3.388548 -5.791186,-3.388548"
	/>
</svg>
